<svg width="57" height="57" viewBox="0 0 57 57" fill="none" xmlns="http://www.w3.org/2000/svg">
<path d="M56.5 28.5C56.5 43.964 43.964 56.5 28.5 56.5C13.036 56.5 0.5 43.964 0.5 28.5C0.5 13.036 13.036 0.5 28.5 0.5C43.964 0.5 56.5 13.036 56.5 28.5Z" stroke="black"/>
<path fill-rule="evenodd" clip-rule="evenodd" d="M24.4451 21.6673C24.0128 24.2935 22.819 25.2485 21.3576 25.4221V26.1818H23.1895V32.8449C23.1895 34.7114 24.3628 35.623 25.9271 35.623C27.1415 35.623 28.3971 35.0804 28.8293 33.9518L28.3971 33.3658C28.1912 33.7347 27.5326 34.2773 26.7092 34.2773C25.8036 34.2773 25.3096 33.6262 25.3096 31.9767V26.0949L28.3559 26.3337L28.5206 24.8578L25.3096 24.988V21.6673H24.4451ZM30.9288 31.9116L30.1466 31.9333C30.2495 32.9751 30.2701 34.0169 30.1466 34.9719C30.1466 34.9719 31.711 35.5796 33.2959 35.5796C35.4365 35.5796 37.1449 34.4944 37.1449 32.3891C37.1449 28.6994 31.958 29.2854 31.958 26.8112C31.958 25.7911 32.843 25.4004 33.7487 25.4004C34.5103 25.4004 35.1278 25.6826 35.2513 26.0949L35.7658 27.7227L36.5274 27.6793C36.5686 26.8112 36.6303 25.8128 36.7538 25.0097C36.0952 24.7059 34.7161 24.5323 33.8516 24.5323C31.8345 24.5323 30.2084 25.4655 30.2084 27.5491C30.2084 31.1954 35.2718 30.3923 35.2718 33.127C35.2718 34.0386 34.7161 34.7331 33.4811 34.7331C32.3079 34.7331 31.7315 34.1037 31.5051 33.4743L30.9288 31.9116ZM39.3473 38.922C38.7298 38.922 38.5446 38.6181 38.4622 38.184L38.1535 36.4911L37.289 36.5345C37.1655 37.5329 36.9803 38.6615 36.7333 39.5514C37.3096 39.9638 38.0094 40.1591 38.9562 40.1591C40.3559 40.1591 42.4554 39.7467 44.349 35.037L47.6423 26.8112C47.9099 26.16 47.9923 26.0732 48.795 25.7477L49.2272 25.574V24.8144L47.2718 24.9229L45.1929 24.8144V25.574L45.7281 25.7477C46.2633 25.9213 46.5103 26.1166 46.5103 26.5724C46.5103 26.8112 46.4485 26.9197 46.325 27.2235C46.0986 27.8313 44.6372 31.6294 43.9168 33.2789C43.0111 30.8915 41.7761 27.3321 41.632 26.8112C41.5909 26.6809 41.5703 26.5724 41.5703 26.4639C41.5703 26.1166 41.7967 25.8345 42.2907 25.726L42.97 25.574V24.8144L40.1501 24.9229L37.9065 24.8144V25.574L38.277 25.7043C38.8122 25.8996 38.8739 25.9647 39.2238 26.7895C40.6441 30.1753 42.229 34.4944 42.7435 35.9051C41.632 38.2709 40.3147 38.922 39.3473 38.922ZM12.2187 21.0596C12.2187 20.8426 12.2393 20.7124 12.5892 20.7124H17.3027C18.126 20.7124 18.5789 21.4503 18.9082 22.8393L19.1758 23.9462H19.9785C20.1226 20.7992 20.2461 19.4318 20.2461 19.4318C20.2461 19.4318 18.229 19.6706 17.0351 19.6706H11.0043L7.77271 19.562V20.4736L8.86361 20.6907C9.62519 20.8426 9.81044 21.0162 9.87219 21.7541C9.87219 21.7541 9.93394 23.9245 9.93394 27.5057C9.93394 31.0868 9.87219 33.2355 9.87219 33.2355C9.87219 33.8867 9.62519 34.1254 8.86361 34.2773L7.77271 34.4944V35.4059L11.0043 35.2974H16.3971C17.6115 35.2974 20.4314 35.4059 20.4314 35.4059C20.4931 34.6246 20.9048 31.0868 20.9665 30.6962H20.205L19.4022 32.6278C18.7641 34.1471 17.8379 34.2556 16.8087 34.2556H13.7418C12.7127 34.2556 12.2187 33.8215 12.2187 32.8883V27.9398C12.2187 27.9398 14.5034 27.9398 15.2444 28.0049C15.8207 28.0483 16.1706 28.2219 16.3559 29.0684L16.6029 30.197H17.488L17.4262 27.3538L17.5497 24.4888H16.6646L16.3765 25.7477C16.1912 26.5724 16.0677 26.7244 15.265 26.8112C14.2152 26.9197 12.2187 26.898 12.2187 26.898V21.0596Z" fill="#262626"/>
</svg>
