<svg width="57" height="57" viewBox="0 0 57 57" fill="none" xmlns="http://www.w3.org/2000/svg">
<path d="M56.5 28.5C56.5 43.964 43.964 56.5 28.5 56.5C13.036 56.5 0.5 43.964 0.5 28.5C0.5 13.036 13.036 0.5 28.5 0.5C43.964 0.5 56.5 13.036 56.5 28.5Z" stroke="black"/>
<path fill-rule="evenodd" clip-rule="evenodd" d="M28.5 16.8176C32.3049 16.8176 32.7556 16.8321 34.2582 16.9007C35.6475 16.9641 36.4021 17.1962 36.9042 17.3913C37.5693 17.6498 38.0441 17.9587 38.5427 18.4573C39.0413 18.9559 39.3502 19.4307 39.6086 20.0958C39.8038 20.5979 40.0359 21.3525 40.0993 22.7418C40.1679 24.2444 40.1824 24.6951 40.1824 28.5C40.1824 32.305 40.1679 32.7556 40.0993 34.2582C40.0359 35.6476 39.8038 36.4021 39.6086 36.9043C39.3502 37.5694 39.0413 38.0441 38.5427 38.5428C38.0441 39.0414 37.5693 39.3502 36.9042 39.6087C36.4021 39.8038 35.6475 40.036 34.2582 40.0994C32.7558 40.168 32.3051 40.1824 28.5 40.1824C24.6948 40.1824 24.2442 40.168 22.7418 40.0994C21.3524 40.036 20.5979 39.8038 20.0958 39.6087C19.4306 39.3502 18.9559 39.0414 18.4572 38.5428C17.9586 38.0441 17.6498 37.5694 17.3913 36.9043C17.1962 36.4021 16.964 35.6476 16.9006 34.2583C16.832 32.7556 16.8176 32.305 16.8176 28.5C16.8176 24.6951 16.832 24.2444 16.9006 22.7418C16.964 21.3525 17.1962 20.5979 17.3913 20.0958C17.6498 19.4307 17.9586 18.9559 18.4572 18.4573C18.9559 17.9587 19.4306 17.6498 20.0958 17.3913C20.5979 17.1962 21.3524 16.9641 22.7417 16.9007C24.2444 16.8321 24.695 16.8176 28.5 16.8176ZM28.5 14.25C24.6299 14.25 24.1447 14.2664 22.6247 14.3358C21.1079 14.405 20.0721 14.6458 19.1657 14.9981C18.2286 15.3623 17.4339 15.8496 16.6417 16.6418C15.8495 17.434 15.3622 18.2286 14.9981 19.1657C14.6458 20.0722 14.4049 21.108 14.3357 22.6248C14.2663 24.1447 14.25 24.6299 14.25 28.5C14.25 32.3701 14.2663 32.8554 14.3357 34.3753C14.4049 35.8921 14.6458 36.9279 14.9981 37.8343C15.3622 38.7714 15.8495 39.5661 16.6417 40.3583C17.4339 41.1505 18.2286 41.6378 19.1657 42.0019C20.0721 42.3542 21.1079 42.5951 22.6247 42.6643C24.1447 42.7337 24.6299 42.75 28.5 42.75C32.3701 42.75 32.8553 42.7337 34.3752 42.6643C35.892 42.5951 36.9278 42.3542 37.8343 42.0019C38.7714 41.6378 39.566 41.1505 40.3582 40.3583C41.1504 39.5661 41.6377 38.7714 42.0019 37.8343C42.3542 36.9279 42.595 35.8921 42.6642 34.3753C42.7336 32.8554 42.75 32.3701 42.75 28.5C42.75 24.6299 42.7336 24.1447 42.6642 22.6248C42.595 21.108 42.3542 20.0722 42.0019 19.1657C41.6377 18.2286 41.1504 17.434 40.3582 16.6418C39.566 15.8496 38.7714 15.3623 37.8343 14.9981C36.9278 14.6458 35.892 14.405 34.3752 14.3358C32.8553 14.2664 32.3701 14.25 28.5 14.25ZM28.5283 21.2054C24.484 21.2054 21.2054 24.484 21.2054 28.5283C21.2054 32.5726 24.484 35.8512 28.5283 35.8512C32.5726 35.8512 35.8512 32.5726 35.8512 28.5283C35.8512 24.484 32.5726 21.2054 28.5283 21.2054ZM28.5283 33.2818C25.903 33.2818 23.7748 31.1535 23.7748 28.5283C23.7748 25.903 25.903 23.7748 28.5283 23.7748C31.1535 23.7748 33.2818 25.903 33.2818 28.5283C33.2818 31.1535 31.1535 33.2818 28.5283 33.2818ZM37.7738 20.866C37.7738 21.803 37.0143 22.5625 36.0774 22.5625C35.1405 22.5625 34.381 21.803 34.381 20.866C34.381 19.9291 35.1405 19.1696 36.0774 19.1696C37.0143 19.1696 37.7738 19.9291 37.7738 20.866Z" fill="#262626"/>
</svg>
