<svg width="57" height="57" viewBox="0 0 57 57" fill="none" xmlns="http://www.w3.org/2000/svg">
<path fill-rule="evenodd" clip-rule="evenodd" d="M56 28.5C56 43.6878 43.6878 56 28.5 56C13.3122 56 1 43.6878 1 28.5C1 13.3122 13.3122 1 28.5 1C43.6878 1 56 13.3122 56 28.5ZM57 28.5C57 44.2401 44.2401 57 28.5 57C12.7599 57 0 44.2401 0 28.5C0 12.7599 12.7599 0 28.5 0C44.2401 0 57 12.7599 57 28.5ZM17.1143 15H16.6785L16.3818 15.3193C13.6423 18.2673 13.4939 22.014 14.791 25.6089C16.079 29.1787 18.8183 32.7233 22.1017 35.5793C25.3871 38.4371 29.3091 40.6855 33.0509 41.5801C36.7932 42.4749 40.5369 42.0421 43.1319 39.2386L43.3445 39.0089L43.3882 38.699L43.9902 34.431L44.0977 33.6692L43.3888 33.37L36.1649 30.3215L35.5406 30.058L35.0645 30.5402L31.9542 33.6904C29.5781 32.5275 27.9564 31.4975 26.639 30.3607C25.381 29.275 24.3672 28.0635 23.2291 26.4729L25.6518 24.0191L26.1168 23.5482L25.865 22.9361L22.8551 15.6195L22.6002 15H21.9303H17.1143ZM16.6723 24.9301C15.5957 21.9463 15.752 19.1868 17.5663 17H21.2603L23.7636 23.0849L21.2187 25.6625L20.6355 26.2532L21.1087 26.9351C22.4855 28.9196 23.7131 30.4774 25.3324 31.8748C26.9506 33.2713 28.9168 34.471 31.7365 35.805L32.3775 36.1083L32.8757 35.6036L36.0116 32.4276L41.9023 34.9135L41.4532 38.0977C39.5365 39.9872 36.7454 40.4071 33.516 39.635C30.1656 38.8339 26.5251 36.7762 23.4143 34.0703C20.3015 31.3627 17.811 28.0862 16.6723 24.9301Z" fill="black"/>
</svg>
