<svg width="57" height="57" viewBox="0 0 57 57" fill="none" xmlns="http://www.w3.org/2000/svg">
<path d="M56.5 28.5C56.5 43.964 43.964 56.5 28.5 56.5C13.036 56.5 0.5 43.964 0.5 28.5C0.5 13.036 13.036 0.5 28.5 0.5C43.964 0.5 56.5 13.036 56.5 28.5Z" stroke="black"/>
<path fill-rule="evenodd" clip-rule="evenodd" d="M29.4406 38.7747C29.4406 38.7747 30.0251 38.7109 30.3245 38.3953C30.5986 38.1061 30.5891 37.5603 30.5891 37.5603C30.5891 37.5603 30.5526 35.0119 31.7581 34.6356C32.9461 34.2656 34.4715 37.1001 36.0903 38.19C37.3132 39.0141 38.2414 38.8338 38.2414 38.8338L42.5674 38.7747C42.5674 38.7747 44.8294 38.6378 43.757 36.8917C43.6683 36.7487 43.1313 35.5996 40.5414 33.2393C37.828 30.7687 38.1923 31.1683 41.4586 26.8939C43.4481 24.2911 44.2433 22.702 43.9946 22.0225C43.7586 21.3726 42.2949 21.5452 42.2949 21.5452L37.4257 21.5747C37.4257 21.5747 37.0645 21.5265 36.7968 21.6836C36.5355 21.8375 36.366 22.1967 36.366 22.1967C36.366 22.1967 35.5961 24.2102 34.5681 25.9237C32.3996 29.5372 31.5331 29.7285 31.1783 29.5046C30.353 28.9806 30.559 27.4024 30.559 26.2813C30.559 22.7782 31.1007 21.3182 29.5056 20.9403C28.9765 20.8144 28.5869 20.732 27.2325 20.718C25.4948 20.7009 24.0249 20.7242 23.1917 21.1238C22.6373 21.3897 22.2096 21.9837 22.471 22.0179C22.7925 22.0599 23.5212 22.2107 23.9077 22.7269C24.4066 23.3939 24.3892 24.8897 24.3892 24.8897C24.3892 24.8897 24.6759 29.0132 23.7192 29.5248C23.0634 29.8762 22.1637 29.1594 20.2296 25.8802C19.2396 24.2009 18.4919 22.3444 18.4919 22.3444C18.4919 22.3444 18.3478 21.9977 18.0896 21.8111C17.7775 21.5856 17.3419 21.5156 17.3419 21.5156L12.715 21.5452C12.715 21.5452 12.0196 21.5638 11.7646 21.8608C11.5381 22.1236 11.7472 22.6694 11.7472 22.6694C11.7472 22.6694 15.3698 30.9895 19.4724 35.1829C23.2345 39.0266 27.505 38.7747 27.505 38.7747H29.4406Z" fill="#262626"/>
</svg>
